<svg id="Layer_1" data-name="Layer 1" xmlns="http://www.w3.org/2000/svg" viewBox="0 0 1080 1080"><defs><style>.cls-1{fill:#fff;}.cls-2{fill:#6cf;}.cls-3{fill:none;}.cls-4{fill:#5cbfab;}.cls-5{fill:#705145;}.cls-6{fill:#fc9;}</style></defs><circle class="cls-1" cx="540" cy="540" r="540"/><path class="cls-2" d="M540,1055A515.14,515.14,0,0,1,339.55,65.46a515.14,515.14,0,0,1,400.9,949.08A511.66,511.66,0,0,1,540,1055Z"/><path class="cls-3" d="M536.69,344.22l-.16.7a15.2,15.2,0,0,0,3.47,12,15.22,15.22,0,0,0,1.43-17.75L540,337.7l-1.41,1.49A16.13,16.13,0,0,0,536.69,344.22Z"/><polygon class="cls-3" points="212.32 560.89 212.68 560.64 212.32 560.87 212.32 560.89"/><polygon class="cls-3" points="523.5 701.7 503.8 713.89 523.5 726.09 523.5 701.7"/><path class="cls-4" d="M212.32,560.87l.36-.23-.39.21a37.16,37.16,0,0,0-5.12,3.2l5.15-3.16Z"/><path class="cls-5" d="M467.05,655.37a233.63,233.63,0,0,1-28.32-27.31L336.13,691.6,372.35,714l9.92-6.14a33,33,0,0,1,7.24-4.5Z"/><path class="cls-5" d="M401.31,570a233.46,233.46,0,0,1-13.18-36.7l-139,86.1-4.2,2.58-1.17.74L245,622a192.74,192.74,0,0,0,27.1,28l5.51-3.41,10.13-6.26Z"/><path class="cls-5" d="M380.91,456.5l108-66.86,0,.09L535.48,361l1.73-1.09,2.79-2.93a15.2,15.2,0,0,1-3.47-12l.16-.7a16.13,16.13,0,0,1,1.9-5L540,337.7a15.31,15.31,0,0,1,19.67-3.64l.48.29,132.88,83L719.71,434a33.58,33.58,0,1,0,36.53-56.3l-.94-.59-166.47-104-.09.09-.4-.27a237.76,237.76,0,0,0-173.25-29.9,228.38,228.38,0,0,0-28.2,7.88A235.24,235.24,0,0,0,362.54,261a69,69,0,0,1-50.19-8.9l-37.12-23L129.65,464.29l33.73,20.87,21,13a68.94,68.94,0,0,1,21.12,36.09l.61,3.23c.92,4.94,2.19,9.8,3.52,14.66.81,2.93,1.75,5.83,2.68,8.72l.39-.21Z"/><path class="cls-5" d="M699.85,629.89l-.16,0,.07-1.68a34.52,34.52,0,0,0-69-1.69l-.1,1.67.1,1.65v36.5l0,52.9v36.88l0,.34,0,.34v4.61l.42-.28a34.35,34.35,0,0,0,68.15-.36h.29V758l.16-1.51-.16-1.51V719l.28-.15,0-54.58Z"/><path class="cls-5" d="M592.61,681.21v-.7a34.63,34.63,0,0,0-69.11-3l-.17,3.32.17,3.32v41.92l-19.7-12.2-65.64,40.66L474.37,777l9.92-6.14.75-.45,38.43-23.81v40.56l0,40.64v.09l1.8-1.11a34.32,34.32,0,0,0,66.84-6.07h.3v-2.8l.15-1.52-.15-1.51V785.17l.18-.13V724Z"/><path class="cls-5" d="M807.15,605.37l-.09-.75-.15-1.4v-5.38h-.66a34.56,34.56,0,0,0-33.72-27.12,34.18,34.18,0,0,0-14.71,3.41,34.61,34.61,0,0,0-19,23.71h-.68v4.25l-.22,3.23,0,1.24v.11l0,49.11v39.5l.21-.13v5.57l-.15,1.45.15,1.47v2.84h.3a34.33,34.33,0,0,0,68.16,0h.3v-2.8l.15-1.51-.15-1.49v-49.8l.15-.11V607Z"/><path class="cls-6" d="M804.79,229.14l-37.13,23a69,69,0,0,1-50.19,8.9A234.8,234.8,0,0,0,540,250.37,234.77,234.77,0,0,1,588.34,273l.4.27.09-.09,166.47,104,.94.59A33.58,33.58,0,1,1,719.71,434L693,417.33l-132.88-83-.48-.29A15.31,15.31,0,0,0,540,337.7l1.43,1.49A15.22,15.22,0,0,1,540,356.94l-2.79,2.93L535.48,361,489,389.73l0-.09-108,66.86L212.68,560.64l-.36.25-5.15,3.16a34.67,34.67,0,0,0,36.54,58.66l1.17-.74,4.2-2.58,139-86.1A233.46,233.46,0,0,0,401.31,570L287.7,640.33l-10.13,6.26A34.71,34.71,0,1,0,324.15,698l.49.67,11.49-7.11,102.6-63.54a233.63,233.63,0,0,0,28.32,27.31l-77.54,48a33,33,0,0,0-7.24,4.5,34.45,34.45,0,1,0,46.61,50.43l1,1.33,8.24-5.1,65.64-40.66,19.7-12.19V684.17l-.17-3.32.17-3.32a34.63,34.63,0,0,1,69.11,3v.7l0,42.83v61l38.12-23.6v-4.61l0-.34,0-.34V719.27l0-52.9v-36.5l-.1-1.65.1-1.67a34.53,34.53,0,0,1,69,1.69l-.07,1.68.16,0v34.42l0,54.58,38.11-23.61v-39.5l0-49.11v-.11l0-1.24.22-3.23v-4.25h.68a34.61,34.61,0,0,1,19-23.71,34.18,34.18,0,0,1,14.71-3.41,34.56,34.56,0,0,1,33.72,27.12h.66v5.38l.15,1.4.09.75-.09,1.58v43.82A195.58,195.58,0,0,0,864,571.85a198.22,198.22,0,0,0,10-34.38l.57-3.23a69.12,69.12,0,0,1,21.15-36.09l21-13,33.71-20.87Z"/><path class="cls-6" d="M523.47,770.9V746.55L485,770.36l-.75.45a34.55,34.55,0,1,0,39.16,56.94l0-40.64Z"/></svg>