<svg xmlns="http://www.w3.org/2000/svg" viewBox="0 0 191.58 34.36"><defs><style>.cls-1{stroke:#000;stroke-miterlimit:10;stroke-width:0.3px;}.cls-2{fill:#295aa1;}.cls-3{fill:#776f6b;}</style></defs><g id="Layer_2" data-name="Layer 2"><g id="Layer_1-2" data-name="Layer 1"><rect class="cls-1" x="53.87" y="0.15" width="0.4" height="34.06"/><path class="cls-2" d="M4.76,9.14v-2a1.24,1.24,0,0,0,0-.27l.28,0h1.5c1.15,0,1.82.18,1.82,1.22,0,.67-.42,1.28-1.77,1.28H5a2,2,0,0,0-.27,0A2.22,2.22,0,0,0,4.76,9.14Zm0,4.58V11.41a1.67,1.67,0,0,0,0-.27,2,2,0,0,0,.27,0H6.28c1,0,2.25,0,2.25,1.4,0,1-.88,1.41-2.08,1.41H5a2,2,0,0,0-.27,0A2.22,2.22,0,0,0,4.76,13.72ZM1.11,5.65v9.61c0,.31,0,.42-.2.56a2.2,2.2,0,0,1-.8.21h0s0,.15,0,.15H7.88c3.28,0,4.66-1.3,4.66-3.33a2.55,2.55,0,0,0-2.08-2.76s0,0,0-.05a2.29,2.29,0,0,0,1.69-2.47c0-2.12-1.43-2.84-4.55-2.84H.12s0,.14,0,.14h0a2.2,2.2,0,0,1,.8.21C1.13,5.23,1.11,5.34,1.11,5.65Z"/><path class="cls-2" d="M40.27,5.65c0-.31,0-.42.2-.56a2.14,2.14,0,0,1,.79-.21h0s0-.14,0-.14H35.53s0,.14,0,.14h0a1.63,1.63,0,0,1,.75.21c.22.14.2.25.2.56v5.77a2.26,2.26,0,1,1-4.51,0V5.65c0-.31,0-.42.21-.56a1.71,1.71,0,0,1,.74-.21h0s0-.14,0-.14H27.51s0,.14,0,.14h0A.72.72,0,0,1,28,5a.75.75,0,0,1,.21.65v5.68c0,2.73,1.49,5,6,5s6-2.32,6-5Z"/><path class="cls-2" d="M22.9,16.18s0-.14,0-.15h0a2.2,2.2,0,0,1-.8-.21c-.22-.14-.2-.25-.2-.56V11.61l4-5.88a2.56,2.56,0,0,1,.53-.65l.15-.1a.74.74,0,0,1,.43-.1h0s.05-.14,0-.14H21.64s0,.14,0,.15h0c.26,0,.58,0,.53.37a28.88,28.88,0,0,1-2.12,3.44,1,1,0,0,0-.17.4.92.92,0,0,0-.18-.4A20.82,20.82,0,0,1,17.6,5.25c0-.39.27-.37.53-.37h0s.05-.14,0-.14H12.53s0,.13,0,.14h0a1.37,1.37,0,0,1,.65.14l.14.09a2.53,2.53,0,0,1,.51.62l4,5.86v3.67c0,.31,0,.42-.21.56a2.09,2.09,0,0,1-.79.21h0s0,.15,0,.15Z"/><path class="cls-2" d="M11.72,28.46a3.84,3.84,0,0,1-3,1.1L7,29.53c-.41,0-.92,0-1.41,0,0,0,0-.14,0-.15a1.68,1.68,0,0,0,.76-.19c.14-.07.23-.26.23-2.45V25.15c0-2.19-.09-2.39-.23-2.46a1.88,1.88,0,0,0-.76-.18s0-.15,0-.15l1.41,0,1.94,0a3.58,3.58,0,0,1,3.84,3.51A3.71,3.71,0,0,1,11.72,28.46ZM8.59,22.73c-.66,0-.94.09-1,.19a6.29,6.29,0,0,0-.17,2.2v1.65c0,1.42.1,2,.25,2.13s.45.29,1,.29c2.18,0,3.18-1,3.18-3.12A3.2,3.2,0,0,0,8.59,22.73Z"/><path class="cls-2" d="M19,29.56s0-.14,0-.15c.34,0,.56-.1.56-.26a10.68,10.68,0,0,0-.78-2.29h-2.3a8.79,8.79,0,0,0-.64,2.21c0,.2.15.3.63.34,0,0,0,.15,0,.15H14.22s-.05-.14,0-.15a1.41,1.41,0,0,0,.7-.21c.11-.09.31-.24,1.11-2.43l.59-1.62c.34-.93.71-1.9,1-2.77,0-.07.35-.07.38,0,.33,1,.62,1.76,1,2.77l.63,1.62c.87,2.19,1,2.35,1.17,2.45a1.2,1.2,0,0,0,.66.19c.05,0,0,.15,0,.15Zm-1.38-5.83-1,2.67h2Z"/><path class="cls-2" d="M28.1,29.56s0-.14,0-.15a1.68,1.68,0,0,0,.76-.19c.13-.07.23-.26.23-2.45v-.69H24.9v.69c0,2.19.11,2.38.24,2.45a1.67,1.67,0,0,0,.75.19c.06,0,.06.15,0,.15H23.09s0-.14,0-.15a1.67,1.67,0,0,0,.75-.19c.14-.07.23-.26.23-2.45V25.15c0-2.19-.09-2.39-.23-2.46a1.87,1.87,0,0,0-.75-.18c-.06,0-.05-.15,0-.15h2.83s0,.13,0,.15a1.87,1.87,0,0,0-.75.18c-.13.07-.24.27-.24,2.46v.52h4.2v-.52c0-2.19-.1-2.39-.23-2.46a1.88,1.88,0,0,0-.76-.18c-.05,0-.05-.15,0-.15h2.81c.05,0,.05.13,0,.15a1.87,1.87,0,0,0-.75.18c-.14.07-.24.27-.24,2.46v1.62c0,2.19.1,2.38.24,2.45a1.67,1.67,0,0,0,.75.19c.06,0,.06.15,0,.15Z"/><path class="cls-2" d="M36.86,29.62a3.51,3.51,0,0,1-3.62-3.57A3.76,3.76,0,0,1,37,22.29a3.51,3.51,0,0,1,3.62,3.58A3.74,3.74,0,0,1,36.86,29.62Zm0-6.91c-2,0-2.64,1.58-2.64,3,0,1.81,1.14,3.48,2.92,3.48,2,0,2.63-1.59,2.63-3C39.72,24.38,38.59,22.71,36.81,22.71Z"/><path class="cls-3" d="M.09,19s-.09.1-.09.22,0,.22.09.22H40c.06,0,.1-.1.1-.22s0-.22-.1-.22Z"/><path class="cls-2" d="M.08,29.56s0-.14,0-.15A2.3,2.3,0,0,0,1,29.22c.13-.08.23-.26.23-2.45V25.15c0-2.19-.1-2.39-.23-2.46a2.6,2.6,0,0,0-.85-.18s0-.15,0-.15h3s0,.13,0,.15a2.52,2.52,0,0,0-.84.18C2.08,22.76,2,23,2,25.15v1.62c0,2.19.1,2.37.25,2.45a2.23,2.23,0,0,0,.84.19c.06,0,.05.15,0,.15Z"/></g><g id="text"><path d="M67.4,17.32V9h2.51v8.39a3.07,3.07,0,0,0,.6,2.11,2.52,2.52,0,0,0,1.93.65,2.69,2.69,0,0,0,2-.63,3,3,0,0,0,.61-2.13V9h2.43v8.68a4.42,4.42,0,0,1-1.31,3.43,5.34,5.34,0,0,1-3.74,1.2,5.16,5.16,0,0,1-3.79-1.24A5.15,5.15,0,0,1,67.4,17.32Z"/><path d="M80.16,22.13V12.7h2.09v1.12a7.46,7.46,0,0,1,1.57-1,3.4,3.4,0,0,1,1.39-.29,2.52,2.52,0,0,1,2,.77,3.38,3.38,0,0,1,.67,2.29v6.55H85.63V16a2.41,2.41,0,0,0-.25-1.29.91.91,0,0,0-.84-.39,2.34,2.34,0,0,0-1,.26,4.47,4.47,0,0,0-1.1.79v6.75Z"/><path d="M90.27,11.15V9h2.27v2.11Zm0,11V12.7h2.27v9.43Z"/><path d="M97,22.13,93.81,12.7h2.26l1.57,5.09a5.93,5.93,0,0,1,.18.66c.07.31.16.72.26,1.25a9.42,9.42,0,0,1,.42-1.79l0-.12,1.58-5.09h2.25l-3.16,9.43Z"/><path d="M110.92,20.28a3.69,3.69,0,0,1-1.52,1.51,4.8,4.8,0,0,1-2.31.52,3.67,3.67,0,0,1-3-1.29A5.4,5.4,0,0,1,103,17.43a5.53,5.53,0,0,1,1.07-3.61,4,4,0,0,1,5.89-.05,5.38,5.38,0,0,1,1,3.54v.24c0,.11,0,.19,0,.24h-5.75a3.38,3.38,0,0,0,.52,2,1.81,1.81,0,0,0,1.52.67,2,2,0,0,0,1.08-.29,2.87,2.87,0,0,0,.87-.92Zm-5.63-4.09h3.51a2.14,2.14,0,0,0-.47-1.47,1.62,1.62,0,0,0-1.28-.53,1.57,1.57,0,0,0-1.23.53A2.51,2.51,0,0,0,105.29,16.19Z"/><path d="M112.77,22.13V12.7h2.16v1.56A3.9,3.9,0,0,1,116,13a2.2,2.2,0,0,1,1.32-.44h.18l.11,0v2.32h-.1a2.64,2.64,0,0,0-1.4.39,2.93,2.93,0,0,0-1,1.09v5.77Z"/><path d="M118.27,20.42l1.53-1.19a4.41,4.41,0,0,0,1.09,1,2.05,2.05,0,0,0,1.11.33,1.54,1.54,0,0,0,1-.28.91.91,0,0,0,.35-.76c0-.48-.5-.9-1.51-1.26l-.24-.1a6.66,6.66,0,0,1-2.4-1.29,2.21,2.21,0,0,1-.6-1.61,2.48,2.48,0,0,1,.91-2,3.58,3.58,0,0,1,2.39-.77,4.24,4.24,0,0,1,1.77.35A4.14,4.14,0,0,1,125.11,14l-1.43,1.22a3.62,3.62,0,0,0-.92-.72,2.14,2.14,0,0,0-.94-.23,1.4,1.4,0,0,0-.9.25.81.81,0,0,0-.33.68c0,.35.5.71,1.51,1.08l.64.24a5.33,5.33,0,0,1,2.08,1.23,2.54,2.54,0,0,1,.55,1.72,2.65,2.65,0,0,1-.91,2.11,3.6,3.6,0,0,1-2.44.79,4.5,4.5,0,0,1-2.09-.46A5,5,0,0,1,118.27,20.42Z"/><path d="M127.12,11.15V9h2.28v2.11Zm0,11V12.7h2.28v9.43Z"/><path d="M134.36,19.3a1.37,1.37,0,0,0,.19.89,1,1,0,0,0,.74.21l.45,0,.49-.05v1.84a8.33,8.33,0,0,1-.87.12c-.32,0-.66,0-1,0a2.34,2.34,0,0,1-1.71-.53,2.26,2.26,0,0,1-.54-1.68V14.54h-1.25V12.7h1.25v-3h2.27v3h1.87v1.84h-1.87Z"/><path d="M140,21.88l-3.37-9.18h2.27L141,18.89l2-6.19h2.22l-3,8.91a8.29,8.29,0,0,1-1.65,3.24,3.24,3.24,0,0,1-2.23.7,2.92,2.92,0,0,1-.51,0,3.16,3.16,0,0,1-.5-.1V23.55a2.57,2.57,0,0,0,.47.08,3.55,3.55,0,0,0,.46,0,1.62,1.62,0,0,0,1.17-.41A2.69,2.69,0,0,0,140,21.88Z"/><path d="M151.33,19.18l2.28-1a4.22,4.22,0,0,0,1.17,1.53,2.49,2.49,0,0,0,1.53.48,2.55,2.55,0,0,0,1.59-.45,1.47,1.47,0,0,0,.58-1.21,1.37,1.37,0,0,0-.43-1,4.68,4.68,0,0,0-1.55-.81l-.44-.16a15.79,15.79,0,0,1-2.72-1.19,3.22,3.22,0,0,1-1.16-1.22,3.41,3.41,0,0,1-.41-1.67A3.16,3.16,0,0,1,153,9.89a4.76,4.76,0,0,1,3.14-1,5.19,5.19,0,0,1,2.83.72,4.25,4.25,0,0,1,1.66,2.14l-2.28.82a3.2,3.2,0,0,0-1-1.28,2.37,2.37,0,0,0-1.41-.4,2,2,0,0,0-1.28.37,1.22,1.22,0,0,0-.47,1c0,.66.76,1.29,2.3,1.88l1.1.44a6.86,6.86,0,0,1,2.62,1.63,3.33,3.33,0,0,1,.69,2.18,3.57,3.57,0,0,1-1.2,2.85,4.94,4.94,0,0,1-3.32,1,5.86,5.86,0,0,1-3.11-.79A5,5,0,0,1,151.33,19.18Z"/><path d="M165.33,19.3a1.37,1.37,0,0,0,.19.89,1,1,0,0,0,.74.21l.45,0,.48-.05v1.84a8.11,8.11,0,0,1-.86.12c-.32,0-.66,0-1,0a2.34,2.34,0,0,1-1.71-.53,2.26,2.26,0,0,1-.54-1.68V14.54h-1.25V12.7h1.25v-3h2.27v3h1.86v1.84h-1.86Z"/><path d="M168,17.41a5.48,5.48,0,0,1,1.08-3.6,4.18,4.18,0,0,1,6,0,5.48,5.48,0,0,1,1.08,3.6,5.4,5.4,0,0,1-1.09,3.6,4.13,4.13,0,0,1-6,0A5.43,5.43,0,0,1,168,17.41Zm2.29,0a4.46,4.46,0,0,0,.45,2.25,1.51,1.51,0,0,0,1.36.74,1.49,1.49,0,0,0,1.36-.74,4.4,4.4,0,0,0,.46-2.25,4.33,4.33,0,0,0-.45-2.23,1.63,1.63,0,0,0-2.73,0A4.34,4.34,0,0,0,170.31,17.41Z"/><path d="M178,22.13V12.7h2.16v1.56A3.8,3.8,0,0,1,181.19,13a2.18,2.18,0,0,1,1.31-.44h.18l.12,0v2.32h-.11a2.64,2.64,0,0,0-1.4.39,2.83,2.83,0,0,0-1,1.09v5.77Z"/><path d="M191.48,20.28A3.69,3.69,0,0,1,190,21.79a4.8,4.8,0,0,1-2.31.52,3.7,3.7,0,0,1-3-1.29,5.45,5.45,0,0,1-1.07-3.59,5.53,5.53,0,0,1,1.07-3.61,4,4,0,0,1,5.89-.05,5.38,5.38,0,0,1,1,3.54c0,.05,0,.13,0,.24v.24h-5.75a3.38,3.38,0,0,0,.52,2,1.81,1.81,0,0,0,1.52.67,2,2,0,0,0,1.08-.29,2.87,2.87,0,0,0,.87-.92Zm-5.63-4.09h3.51a2.14,2.14,0,0,0-.47-1.47,1.62,1.62,0,0,0-1.28-.53,1.57,1.57,0,0,0-1.23.53A2.51,2.51,0,0,0,185.85,16.19Z"/></g></g></svg>